<?xml version="1.0" standalone="no"?>
<!DOCTYPE svg PUBLIC "-//W3C//DTD SVG 20010904//EN"
 "http://www.w3.org/TR/2001/REC-SVG-20010904/DTD/svg10.dtd">
<svg version="1.0" xmlns="http://www.w3.org/2000/svg"
 width="400.000000pt" height="400.000000pt" viewBox="0 0 400.000000 400.000000"
 preserveAspectRatio="xMidYMid meet">
<metadata>
Created by potrace 1.11, written by Peter Selinger 2001-2013
</metadata>
<g transform="translate(0.000000,400.000000) scale(0.100000,-0.100000)"
fill="#000000" stroke="none">
<path d="M1880 3965 c-36 -7 -142 -38 -237 -68 -257 -83 -363 -91 -505 -37
l-51 19 7 -47 c3 -25 20 -75 36 -111 17 -35 29 -66 26 -68 -2 -2 -18 13 -36
34 -32 37 -32 38 -27 10 8 -49 -17 -24 -28 28 -11 51 -23 49 -44 -8 -9 -24
-13 -26 -38 -16 -15 6 -43 22 -60 35 -18 14 -33 21 -33 15 0 -5 17 -47 37 -93
30 -68 38 -100 43 -178 l8 -95 -40 -65 c-67 -111 -88 -214 -88 -428 0 -167 16
-259 67 -382 19 -46 33 -94 30 -107 -6 -30 9 -112 35 -193 21 -67 98 -195 109
-182 3 4 23 126 43 272 71 513 70 510 168 702 68 134 70 137 91 123 40 -26
115 -37 173 -25 43 9 57 8 76 -3 13 -8 48 -23 78 -33 48 -17 87 -19 320 -19
293 1 361 11 498 75 34 16 62 25 62 20 0 -4 -30 -36 -66 -69 -37 -34 -65 -61
-62 -61 13 0 77 31 83 40 3 5 15 15 25 20 18 10 19 8 10 -17 -10 -27 -9 -26
20 7 l29 35 1 -41 c0 -65 24 -127 91 -241 96 -162 110 -221 129 -558 6 -93 16
-192 23 -220 l13 -50 29 45 c44 69 74 142 89 212 7 35 23 82 34 104 43 85 66
280 42 365 -8 28 -6 53 10 112 53 208 30 363 -79 529 -90 137 -198 237 -284
263 l-40 12 29 22 c19 15 36 20 54 16 l25 -5 -24 14 c-14 8 -32 11 -40 8 -9
-3 2 14 24 37 21 22 35 41 30 41 -15 0 -85 -52 -85 -63 0 -6 -2 -8 -6 -5 -3 3
6 34 20 69 14 34 24 64 22 66 -5 5 -40 -52 -59 -97 l-15 -35 -1 49 c-1 59 -10
55 -19 -9 l-7 -47 -29 39 c-75 98 -233 198 -372 233 -91 24 -262 26 -364 5z"/>
<path d="M1405 2494 c-11 -2 -44 -9 -73 -16 -83 -18 -85 -35 -2 -24 46 6 128
5 257 -4 103 -7 197 -11 207 -9 27 6 31 26 8 38 -20 11 -361 24 -397 15z"/>
<path d="M2278 2491 c-77 -6 -112 -21 -92 -41 15 -15 41 -15 236 0 124 10 199
11 247 4 79 -11 83 -4 13 21 -53 19 -270 28 -404 16z"/>
<path d="M1383 2291 c-39 -3 -74 -9 -78 -13 -11 -11 32 -83 70 -116 47 -42 69
-47 210 -47 101 1 128 4 168 22 26 12 47 26 47 30 0 14 -72 79 -105 96 -37 18
-148 38 -201 35 -21 -1 -71 -4 -111 -7z m79 -66 c-3 -31 0 -52 12 -70 13 -19
14 -25 3 -25 -27 0 -104 60 -126 100 l-22 40 69 0 70 0 -6 -45z m174 24 c11
-18 -13 -34 -31 -19 -8 7 -15 16 -15 21 0 13 38 11 46 -2z m87 -34 c20 -14 37
-29 37 -34 0 -8 -56 -35 -97 -46 -22 -6 -22 -6 -8 29 8 19 15 45 15 56 0 26 8
25 53 -5z m-185 -68 c4 -19 -6 -21 -27 -8 -16 10 -5 34 12 28 7 -2 13 -11 15
-20z m52 -6 c0 -5 -9 -11 -20 -14 -13 -3 -20 0 -20 9 0 8 9 14 20 14 11 0 20
-4 20 -9z"/>
<path d="M2375 2287 c-74 -16 -110 -35 -155 -82 -34 -35 -34 -37 -15 -48 47
-28 96 -39 187 -44 160 -9 229 19 281 115 25 46 26 51 10 56 -44 13 -251 15
-308 3z m143 -40 c5 -25 -28 -34 -44 -12 -21 28 -17 37 13 33 17 -2 29 -10 31
-21z m142 17 c0 -19 -46 -77 -82 -104 -53 -38 -75 -40 -52 -5 12 18 15 39 12
70 l-6 45 64 0 c35 0 64 -3 64 -6z m-330 -44 c0 -11 7 -36 14 -55 8 -19 11
-35 6 -35 -18 0 -120 42 -120 49 0 11 72 61 87 61 7 0 13 -9 13 -20z m108 -67
c12 -3 22 -11 22 -18 0 -7 -10 -11 -22 -10 -13 1 -29 3 -36 4 -7 0 -10 5 -7
11 3 6 -1 7 -9 4 -9 -3 -16 -2 -16 3 0 16 13 24 29 17 9 -4 26 -9 39 -11z"/>
<path d="M1508 1118 c-9 -13 -40 -75 -71 -140 -94 -195 -172 -252 -417 -309
-282 -64 -496 -150 -614 -246 -108 -87 -178 -219 -193 -365 l-6 -58 1772 0
c1000 0 1771 4 1771 9 0 5 -11 51 -24 103 -56 222 -173 362 -363 437 -29 11
-128 36 -220 56 -252 52 -313 70 -403 115 -119 60 -181 138 -215 270 -18 70
-29 95 -53 122 -14 17 -19 13 -81 -45 -119 -111 -217 -148 -391 -148 -177 0
-274 37 -394 151 -40 39 -76 70 -79 70 -2 0 -11 -10 -19 -22z"/>
</g>
</svg>
